<svg xmlns="http://www.w3.org/2000/svg" width="640" height="520" viewBox="0 0 160 130">
<defs><radialGradient id="fr-pl" cx=".4" cy=".3" r=".8"><stop offset="0" stop-color="#E4B87E"></stop><stop offset=".6" stop-color="#C08A4A"></stop><stop offset="1" stop-color="#84581F"></stop></radialGradient><linearGradient id="fr-fry" x1="0" y1="0" x2="1" y2=".4"><stop offset="0" stop-color="#FBDC7C"></stop><stop offset=".55" stop-color="#E0A32E"></stop><stop offset="1" stop-color="#9C6A12"></stop></linearGradient></defs>
<ellipse cx="80" cy="108" rx="62" ry="17" fill="#7A5024"></ellipse><ellipse cx="80" cy="102" rx="62" ry="17" fill="url(#fr-pl)"></ellipse>
<path d="M46 96 L114 96 L106 56 L54 56 Z" fill="#8A5A2B"></path><path d="M80 96 L114 96 L106 56 L80 56 Z" fill="#6A4218"></path>
<path d="M50 60 L110 60" stroke="#4E3416" stroke-width="3"></path>
<g stroke="#8A5C12" stroke-width="1.6"><path d="M58 58 L50 22 L64 18 L70 56 Z" fill="url(#fr-fry)"></path><path d="M74 56 L72 12 L86 14 L86 56 Z" fill="url(#fr-fry)"></path><path d="M90 56 L100 24 L112 30 L102 58 Z" fill="url(#fr-fry)"></path><path d="M64 58 L62 30 L72 30 L74 58 Z" fill="#F3D06A"></path></g>
<g fill="#FFF" opacity=".35"><path d="M53 26 L58 24 L60 40 L55 42 Z"></path><path d="M76 18 L80 17 L80 40 L76 40 Z"></path></g>
</svg>